<?xml version="1.0" encoding="utf-8"?>
<!-- Generator: Adobe Illustrator 23.0.1, SVG Export Plug-In . SVG Version: 6.00 Build 0)  -->
<svg version="1.1" id="레이어_1" xmlns="http://www.w3.org/2000/svg" xmlns:xlink="http://www.w3.org/1999/xlink" x="0px"
	 y="0px" viewBox="0 0 100 91.87" style="enable-background:new 0 0 100 91.87;" xml:space="preserve">
<style type="text/css">
	.st0{fill:#666666;}
</style>
<path class="st0" d="M50,0C22.39,0,0,17.7,0,39.53c0,14.21,9.49,26.66,23.72,33.63c-1.05,3.9-3.79,14.14-4.33,16.33
	c-0.68,2.72,0.99,2.68,2.09,1.95c0.86-0.57,13.7-9.3,19.24-13.07c3.01,0.45,6.11,0.68,9.28,0.68c27.61,0,50-17.7,50-39.53
	S77.61,0,50,0z M26.05,38.03l-0.02,17.52c0.01,2.43-5.4,2.45-5.41,0.02c0.03-3.34,0-17.55,0-17.55h-5.21c-3.06,0-3.06-5.1-0.01-5.1
	c0,0,12.2,0,15.85,0c3.24,0,3.24,5.11,0,5.11C27.79,38.03,26.05,38.03,26.05,38.03z M45.95,56.11c-1.27-3.34-0.94-3.49-0.94-3.49
	l-9.54,0l-1.04,3.65c-1.11,2.56-5.91,0.47-4.79-2.08c1.54-3.54,6.17-16.88,7.45-19.7c1.12-2.47,5.58-1.67,6.36,0
	c0.92,1.97,5.99,15.89,7.45,19.75C51.92,56.94,46.97,58.82,45.95,56.11z M65.28,57.34c-2.45,0-7.97,0.03-10.46,0.03
	s-2.07-2.91-2.07-2.91s-0.02-14.61-0.03-19.14c-0.01-3.18,5.63-3.2,5.64-0.01c0.01,3.28-0.01,16.79-0.01,16.79s4.47,0.03,6.92,0.03
	S67.73,57.34,65.28,57.34z M82.11,56.93l-6.87-9.37l-1.57,1.26c0,0,0,4.63,0,7.07c0,2.1-5.35,2.1-5.35,0
	c0-1.33,0.12-19.31,0.06-21.29c-0.06-2.12,5.26-2.26,5.32-0.14c0.07,2.7,0,7.57,0,7.57s7.76-7.76,8.86-8.86
	c1.14-1.13,4.67,2.42,3.53,3.55c-1.95,1.94-6.91,7.3-6.91,7.3l7.3,9.61C87.87,55.45,83.5,58.76,82.11,56.93z"/>
<polygon class="st0" points="37.19,47.83 43.24,47.83 40.34,38.74 "/>
</svg>
