<?xml version="1.0" encoding="utf-8"?>
<!-- Generator: Adobe Illustrator 23.0.1, SVG Export Plug-In . SVG Version: 6.00 Build 0)  -->
<svg version="1.1" id="레이어_1" xmlns="http://www.w3.org/2000/svg" xmlns:xlink="http://www.w3.org/1999/xlink" x="0px"
	 y="0px" viewBox="0 0 271.86 228.7" style="enable-background:new 0 0 271.86 228.7;" xml:space="preserve">
<style type="text/css">
	.st0{fill:#666666;}
</style>
<path class="st0" d="M152.05,90.11c-5.91,0-10.7,4.79-10.7,10.69c0,5.91,4.79,10.7,10.7,10.7c5.9,0,10.69-4.79,10.69-10.7
	C162.74,94.9,157.95,90.11,152.05,90.11z"/>
<path class="st0" d="M56.71,90.11c-5.9,0-10.7,4.79-10.7,10.69c0,5.91,4.79,10.7,10.7,10.7c5.9,0,10.69-4.79,10.69-10.7
	C67.41,94.9,62.62,90.11,56.71,90.11z"/>
<path class="st0" d="M216.15,90.11c-5.91,0-10.69,4.79-10.69,10.69c0,5.91,4.79,10.7,10.69,10.7c5.9,0,10.69-4.79,10.69-10.7
	C226.85,94.9,222.06,90.11,216.15,90.11z"/>
<path class="st0" d="M228.92,0H42.94C19.22,0,0,19.29,0,43.09v102.22c0,23.8,19.22,43.09,42.94,43.09H107l-4.52-7.36l27.63-1.73
	v-0.73l5.85,0.36l5.79-0.36v0.72l27.63,1.73l-4.52,7.37h64.06c23.71,0,42.94-19.29,42.94-43.09V43.09
	C271.86,19.29,252.63,0,228.92,0z M60.38,126.14c-10.01,0-13.98-7.16-13.98-7.16v5.43H29.58V55.06h16.65v26.39
	c6.73-6.55,14.15-6.55,14.15-6.55c22.59,0,23.46,25.36,23.46,25.36C83.83,125.27,60.38,126.14,60.38,126.14z M112.82,79.56v44.84
	H96.78V83.36c0-14.15-7.6-13.8-7.6-13.8V53.51C113.5,53.51,112.82,79.56,112.82,79.56z M180.18,100.8
	c0,25.29-28.13,25.34-28.13,25.34c-28.39,0-27.5-25.34-27.5-25.34c0-25.68,27.5-25.68,27.5-25.68
	C181.09,75.12,180.18,100.8,180.18,100.8z M242.27,123.76c0,26.26-24.32,26-24.32,26h-6.47v-14.75h4.01
	c11.78,0,10.61-12.16,10.61-12.16v-3.89c-5.17,6.73-14.62,6.34-14.62,6.34c-23.16,0-22.9-24.69-22.9-24.69
	c0-26.5,23.55-25.51,23.55-25.51c9.18,0,13.97,6.34,13.97,6.34V76.8h16.17V123.76z"/>
<path class="st0" d="M128.87,224c0,0,0.23,0.42,0.71,1.01c1.28,2.19,3.63,3.68,6.35,3.68c2.71,0,5.05-1.47,6.33-3.64
	c0.55-0.64,0.74-1.06,0.74-1.06l21.86-35.59H107L128.87,224z"/>
<polygon class="st0" points="141.75,179.31 141.75,178.59 135.96,178.95 130.11,178.58 130.11,179.31 102.48,181.04 107,188.4 
	164.86,188.4 169.38,181.04 "/>
</svg>
