<?xml version="1.0" encoding="utf-8"?>
<!-- Generator: Adobe Illustrator 16.0.0, SVG Export Plug-In . SVG Version: 6.00 Build 0)  -->
<!DOCTYPE svg PUBLIC "-//W3C//DTD SVG 1.1//EN" "http://www.w3.org/Graphics/SVG/1.1/DTD/svg11.dtd">
<svg version="1.1" id="Layer_1" xmlns="http://www.w3.org/2000/svg" xmlns:xlink="http://www.w3.org/1999/xlink" x="0px" y="0px"
	 width="164.529px" height="15.947px" viewBox="0 0 164.529 15.947" enable-background="new 0 0 164.529 15.947"
	 xml:space="preserve">
<polygon fill="#000100" points="152.859,0.01 152.859,6.857 162.072,6.857 162.072,0.01 164.529,0.01 164.529,15.933 
	162.072,15.933 162.072,9.224 152.859,9.224 152.859,15.933 150.402,15.933 150.402,0.01 "/>
<path fill="#000100" d="M14.203,13.654c-0.356,0.355-0.842,0.709-1.458,1.057c-0.616,0.35-1.325,0.643-2.126,0.881
	c-0.802,0.236-1.655,0.355-2.56,0.355c-1.128,0-2.182-0.189-3.162-0.568c-0.979-0.377-1.836-0.916-2.57-1.613
	c-0.735-0.697-1.307-1.539-1.715-2.527C0.203,10.251,0,9.15,0,7.931c0-1.142,0.215-2.195,0.645-3.159
	c0.431-0.966,1.028-1.805,1.793-2.516c0.764-0.713,1.636-1.266,2.615-1.66c0.98-0.392,2.019-0.589,3.117-0.589
	c0.92,0,1.784,0.129,2.594,0.39c0.809,0.26,1.528,0.59,2.159,0.99c0.631,0.401,1.132,0.824,1.503,1.27L12.89,4.481
	c-0.653-0.608-1.377-1.109-2.171-1.502C9.925,2.586,9.046,2.389,8.081,2.389c-0.95,0-1.856,0.224-2.716,0.669
	C4.504,3.502,3.803,4.14,3.261,4.971C2.72,5.802,2.449,6.789,2.449,7.931c0,1.247,0.278,2.286,0.835,3.118
	c0.556,0.832,1.283,1.459,2.181,1.881c0.898,0.424,1.866,0.637,2.905,0.637c1.054,0,1.967-0.205,2.739-0.613
	c0.771-0.408,1.409-0.834,1.914-1.279L14.203,13.654z"/>
<polygon fill="#000100" points="25.25,0.022 25.25,6.869 34.463,6.869 34.463,0.022 36.92,0.022 36.92,15.947 34.463,15.947 
	34.463,9.236 25.25,9.236 25.25,15.947 22.793,15.947 22.793,0.022 "/>
<path fill="#000100" d="M60.043,0v9.154c0,1.309-0.297,2.473-0.89,3.494c-0.594,1.023-1.418,1.826-2.469,2.414
	c-1.053,0.584-2.263,0.877-3.63,0.877c-1.384,0-2.597-0.293-3.642-0.877c-1.045-0.588-1.864-1.391-2.458-2.414
	c-0.594-1.021-0.89-2.186-0.89-3.494V0H48.5v8.996c0,0.887,0.207,1.678,0.62,2.367c0.413,0.691,0.966,1.236,1.657,1.635
	s1.451,0.598,2.278,0.598c0.856,0,1.637-0.199,2.344-0.598s1.27-0.943,1.691-1.635c0.421-0.689,0.632-1.48,0.632-2.367V0H60.043z"/>
<polygon fill="#000100" points="72.816,15.947 72.816,2.388 67.72,2.388 67.72,0.022 80.504,0.022 80.504,2.388 75.273,2.388 
	75.273,15.947 "/>
<polygon fill="#000100" points="100.432,0.022 100.432,1.796 90.672,13.558 100.682,13.558 100.682,15.947 87.033,15.947 
	87.033,14.15 96.838,2.411 87.625,2.411 87.625,0.022 "/>
<path fill="#000100" d="M116.355,0.022c0.879,0,1.69,0.216,2.434,0.648c0.743,0.432,1.339,1.016,1.786,1.751
	c0.446,0.736,0.672,1.566,0.672,2.491c0,0.94-0.231,1.79-0.694,2.548c-0.463,0.759-1.076,1.361-1.843,1.808
	s-1.612,0.672-2.536,0.672h-4.96v6.006h-2.456V0.022H116.355z M116.061,7.575c0.47,0,0.906-0.121,1.308-0.364
	s0.724-0.565,0.966-0.967c0.243-0.401,0.365-0.846,0.365-1.331c0-0.47-0.122-0.896-0.365-1.274
	c-0.242-0.378-0.564-0.682-0.966-0.909s-0.838-0.342-1.308-0.342h-4.847v5.188H116.061z"/>
<path fill="#000100" d="M139.763,15.947l-1.637-3.869h-7.735l-1.66,3.869h-2.525l6.803-15.924h2.661l6.756,15.924H139.763z
	 M133.029,5.892l-2.639,6.186h7.735l-2.685-6.277c-0.197-0.501-0.395-1.014-0.592-1.536c-0.197-0.523-0.395-1.065-0.591-1.626
	c-0.213,0.576-0.418,1.138-0.615,1.684C133.447,4.868,133.242,5.391,133.029,5.892"/>
<g>
</g>
<g>
</g>
<g>
</g>
<g>
</g>
<g>
</g>
<g>
</g>
</svg>
